<?xml version="1.0" encoding="UTF-8"?>
<svg id="Layer_1" xmlns="http://www.w3.org/2000/svg" version="1.1" viewBox="0 0 512 512">
  <!-- Generator: Adobe Illustrator 29.8.4, SVG Export Plug-In . SVG Version: 2.1.1 Build 6)  -->
  <defs>
    <style>
      .st0 {
        fill: none;
      }
    </style>
  </defs>
  <path class="st0" d="M102.6,212c1.7-1,3.5-1.7,5.5-2.1,2-.4,4.4-.7,7.3-.7s6.7.6,9.9,1.9c3.2,1.3,6,3.1,8.4,5.3,2.4,2.3,4.3,5.1,5.7,8.3,1.4,3.3,2.1,6.9,2.1,10.9s-.9,9.6-2.6,13.4c-1.7,3.9-4,7.1-7,9.8-2.9,2.6-6.4,4.6-10.3,5.9-4,1.3-8.2,2-12.8,2s-10.9-1.1-15.4-3.2c-4.5-2.1-8.3-5-11.3-8.6-3.1-3.6-5.4-7.9-7-12.8-1.6-4.9-2.4-10.1-2.4-15.7s1.1-14.3,3.2-20.1c2.2-5.8,5-10.5,8.6-14.4,3.6-3.8,7.6-6.7,12.3-8.6,4.6-1.9,9.3-2.8,14.2-2.8s6.6.4,9.6,1.1c2.9.7,5.5,1.8,7.6,3.2,2.1,1.4,3.8,3.3,4.9,5.4,1.2,2.2,1.8,4.6,1.8,7.4s-.3,3.5-.8,5.3c-.5,1.8-1.3,3.3-2.4,4.5-1.4-.9-3.4-1.8-5.9-2.9-2.5-1.1-5.9-1.6-10.2-1.6s-7.4.5-10.2,1.4c-2.8.9-4.2,2.4-4.2,4.3s.2,1.4.5,1.8c.4.4.7.8.9,1.2Z"/>
  <path class="st0" d="M102.6,212c1.7-1,3.5-1.7,5.5-2.1,2-.4,4.4-.7,7.3-.7s6.7.6,9.9,1.9c3.2,1.3,6,3.1,8.4,5.3,2.4,2.3,4.3,5.1,5.7,8.3,1.4,3.3,2.1,6.9,2.1,10.9s-.9,9.6-2.6,13.4c-1.7,3.9-4,7.1-7,9.8-2.9,2.6-6.4,4.6-10.3,5.9-4,1.3-8.2,2-12.8,2s-10.9-1.1-15.4-3.2c-4.5-2.1-8.3-5-11.3-8.6-3.1-3.6-5.4-7.9-7-12.8-1.6-4.9-2.4-10.1-2.4-15.7s1.1-14.3,3.2-20.1c2.2-5.8,5-10.5,8.6-14.4,3.6-3.8,7.6-6.7,12.3-8.6,4.6-1.9,9.3-2.8,14.2-2.8s6.6.4,9.6,1.1c2.9.7,5.5,1.8,7.6,3.2,2.1,1.4,3.8,3.3,4.9,5.4,1.2,2.2,1.8,4.6,1.8,7.4s-.3,3.5-.8,5.3c-.5,1.8-1.3,3.3-2.4,4.5-1.4-.9-3.4-1.8-5.9-2.9-2.5-1.1-5.9-1.6-10.2-1.6s-7.4.5-10.2,1.4c-2.8.9-4.2,2.4-4.2,4.3s.2,1.4.5,1.8c.4.4.7.8.9,1.2Z"/>
  <path d="M256,0C114.6,0,0,114.6,0,256c0,243.7,171.3,35.4,244,108,72.7,72.7-86.3,148,12,148,141.4,0,256-114.6,256-256S397.4,0,256,0ZM138.9,249.1c-1.7,3.9-4,7.1-7,9.8-2.9,2.6-6.4,4.6-10.3,5.9-4,1.3-8.2,2-12.8,2s-10.9-1.1-15.4-3.2c-4.5-2.1-8.3-5-11.3-8.6-3.1-3.6-5.4-7.9-7-12.8-1.6-4.9-2.4-10.1-2.4-15.7s1.1-14.3,3.2-20.1c2.2-5.8,5-10.5,8.6-14.4,3.6-3.8,7.6-6.7,12.3-8.6,4.6-1.9,9.3-2.8,14.2-2.8s6.6.4,9.6,1.1c2.9.7,5.5,1.8,7.6,3.2,2.1,1.4,3.8,3.3,4.9,5.4,1.2,2.2,1.8,4.6,1.8,7.4s-.3,3.5-.8,5.3c-.5,1.8-1.3,3.3-2.4,4.5-1.4-.9-3.4-1.8-5.9-2.9-2.5-1.1-5.9-1.6-10.2-1.6s-7.4.5-10.2,1.4c-2.8.9-4.2,2.4-4.2,4.3s.2,1.4.5,1.8c.4.4.7.8.9,1.2,1.7-1,3.5-1.7,5.5-2.1,2-.4,4.4-.7,7.3-.7s6.7.6,9.9,1.9c3.2,1.3,6,3.1,8.4,5.3,2.4,2.3,4.3,5.1,5.7,8.3,1.4,3.3,2.1,6.9,2.1,10.9s-.9,9.6-2.6,13.4ZM251.6,138.6c-.7,1.8-1.6,3.5-2.8,5.1-1.2,1.6-2.6,3.1-4.2,4.5-1.6,1.4-3.3,2.8-5,4.1.6,2.7,1.2,5.2,1.7,7.5.5,2.3.8,4.4.8,6.5s-.6,4.8-1.8,7c-1.2,2.2-3.4,4.4-6.5,6.7-3.9,2.8-7.6,4.2-11.3,4.2s-5.6-.7-8.3-2c-2.7-1.4-5.6-3.2-8.7-5.5-3.1,2.3-6,4.1-8.7,5.5-2.7,1.4-5.5,2-8.3,2s-7.5-1.4-11.3-4.2c-3.2-2.3-5.3-4.5-6.5-6.7-1.2-2.2-1.8-4.5-1.8-7s.3-4.2.8-6.5c.5-2.3,1.1-4.8,1.7-7.5-3.6-2.5-6.7-5.4-9.2-8.6-2.5-3.2-3.8-6.8-3.8-10.9s0-1.9.3-2.9c.2-1,.4-2,.8-3.2,1-2.9,2.2-5.2,3.6-7.1,1.4-1.8,3.1-3.2,5.2-4.3,2.1-1.1,4.4-1.8,7.1-2.2,2.7-.4,5.8-.6,9.3-.7,2.1-6.9,4.7-11.8,7.8-14.9,3.1-3.1,7.5-4.6,13.1-4.6s10,1.5,13.1,4.6c3.1,3.1,5.7,8,7.8,14.9,3.5,0,6.6.3,9.3.7,2.7.4,5.1,1.1,7.1,2.2,2.1,1.1,3.8,2.5,5.2,4.3,1.4,1.8,2.6,4.2,3.6,7.1.4,1.1.6,2.2.8,3.2.2,1,.3,1.9.3,2.9,0,2.1-.4,4.1-1.1,5.9ZM329.4,166.8c1,.6,2,.9,3.2.9,2.3,0,4.6-.5,7.1-1.5,2.4-1,4.2-1.9,5.5-2.8,4.4,3.5,7.8,7.8,10.3,13,2.5,5.1,3.8,10.6,3.8,16.4s-1,10.1-3,14.7c-2,4.6-4.7,8.6-8.2,12.1s-7.4,6.1-12,8.1c-4.6,2-9.4,3-14.6,3s-10.2-1-14.9-3c-4.7-2-8.7-4.7-12.2-8.1-3.5-3.4-6.2-7.4-8.2-12.1-2-4.6-3-9.5-3-14.7s.4-5.9,1.1-9c.7-3.1,1.9-6.1,3.4-9,1.5-2.9,3.5-5.6,5.9-8.2,2.4-2.6,5.2-4.9,8.6-6.8-5.8-3.3-10.4-7.9-13.8-13.6-3.4-5.7-5.1-12.1-5.1-19.1s1-10.2,3-14.9c2-4.7,4.8-8.7,8.2-12.2s7.5-6.2,12.2-8.2c4.7-2,9.6-3,14.9-3s10.1,1,14.6,3c4.6,2,8.6,4.8,12,8.2,3.4,3.5,6.1,7.5,8.2,12.2,2,4.7,3,9.6,3,14.9s-.8,9.2-2.3,13.2c-1.5,4.1-3.7,7.7-6.5,10.8-2.8,3.1-6.1,5.7-9.9,7.8-3.8,2.1-8,3.4-12.6,4,0,1.9.5,3.2,1.5,3.8ZM436.3,291.9c-2,4.6-4.8,8.6-8.2,12.1-3.5,3.4-7.5,6.1-12.2,8.1-4.7,2-9.6,3-14.9,3s-10.1-1-14.6-3c-4.6-2-8.6-4.7-12-8.1-3.4-3.4-6.2-7.4-8.2-12.1-2-4.6-3-9.5-3-14.7s1-10.2,3-14.9c2-4.7,4.7-8.7,8.2-12.2,3.4-3.5,7.4-6.2,12-8.2,4.6-2,9.4-3,14.6-3s10.2,1,14.9,3c4.7,2,8.7,4.8,12.2,8.2,3.5,3.5,6.2,7.5,8.2,12.2,2,4.7,3,9.6,3,14.9s-1,10.1-3,14.7Z"/>
  <path class="st0" d="M252.4,129.9c-.2-1-.4-2-.8-3.2-1-2.9-2.2-5.2-3.6-7.1-1.4-1.8-3.1-3.2-5.2-4.3-2.1-1.1-4.4-1.8-7.1-2.2-2.7-.4-5.8-.6-9.3-.7-2.1-6.9-4.7-11.8-7.8-14.9-3.1-3.1-7.5-4.6-13.1-4.6s-10,1.5-13.1,4.6c-3.1,3.1-5.7,8-7.8,14.9-3.5,0-6.6.3-9.3.7-2.7.4-5.1,1.1-7.1,2.2-2.1,1.1-3.8,2.5-5.2,4.3-1.4,1.8-2.6,4.2-3.6,7.1-.4,1.1-.6,2.2-.8,3.2-.2,1-.3,1.9-.3,2.9,0,4.1,1.3,7.8,3.8,10.9,2.5,3.2,5.6,6,9.2,8.6-.6,2.7-1.2,5.2-1.7,7.5-.5,2.3-.8,4.4-.8,6.5s.6,4.8,1.8,7c1.2,2.2,3.4,4.4,6.5,6.7,3.9,2.8,7.6,4.2,11.3,4.2s5.6-.7,8.3-2c2.7-1.4,5.6-3.2,8.7-5.5,3.1,2.3,6,4.1,8.7,5.5,2.7,1.4,5.5,2,8.3,2s7.5-1.4,11.3-4.2c3.2-2.3,5.3-4.5,6.5-6.7,1.2-2.2,1.8-4.5,1.8-7s-.3-4.2-.8-6.5c-.5-2.3-1.1-4.8-1.7-7.5,1.8-1.3,3.4-2.7,5-4.1,1.6-1.4,3-2.9,4.2-4.5,1.2-1.6,2.1-3.3,2.8-5.1.7-1.8,1.1-3.8,1.1-5.9s0-1.9-.3-2.9Z"/>
  <path class="st0" d="M327.9,162.9c0,1.9.5,3.2,1.5,3.8,1,.6,2,.9,3.2.9,2.3,0,4.6-.5,7.1-1.5,2.4-1,4.2-1.9,5.5-2.8,4.4,3.5,7.8,7.8,10.3,13,2.5,5.1,3.8,10.6,3.8,16.4s-1,10.1-3,14.7c-2,4.6-4.7,8.6-8.2,12.1s-7.4,6.1-12,8.1c-4.6,2-9.4,3-14.6,3s-10.2-1-14.9-3c-4.7-2-8.7-4.7-12.2-8.1-3.5-3.4-6.2-7.4-8.2-12.1-2-4.6-3-9.5-3-14.7s.4-5.9,1.1-9c.7-3.1,1.9-6.1,3.4-9,1.5-2.9,3.5-5.6,5.9-8.2,2.4-2.6,5.2-4.9,8.6-6.8-5.8-3.3-10.4-7.9-13.8-13.6-3.4-5.7-5.1-12.1-5.1-19.1s1-10.2,3-14.9c2-4.7,4.8-8.7,8.2-12.2s7.5-6.2,12.2-8.2c4.7-2,9.6-3,14.9-3s10.1,1,14.6,3c4.6,2,8.6,4.8,12,8.2,3.4,3.5,6.1,7.5,8.2,12.2,2,4.7,3,9.6,3,14.9s-.8,9.2-2.3,13.2c-1.5,4.1-3.7,7.7-6.5,10.8-2.8,3.1-6.1,5.7-9.9,7.8-3.8,2.1-8,3.4-12.6,4Z"/>
  <path class="st0" d="M327.9,162.9c0,1.9.5,3.2,1.5,3.8,1,.6,2,.9,3.2.9,2.3,0,4.6-.5,7.1-1.5,2.4-1,4.2-1.9,5.5-2.8,4.4,3.5,7.8,7.8,10.3,13,2.5,5.1,3.8,10.6,3.8,16.4s-1,10.1-3,14.7c-2,4.6-4.7,8.6-8.2,12.1s-7.4,6.1-12,8.1c-4.6,2-9.4,3-14.6,3s-10.2-1-14.9-3c-4.7-2-8.7-4.7-12.2-8.1-3.5-3.4-6.2-7.4-8.2-12.1-2-4.6-3-9.5-3-14.7s.4-5.9,1.1-9c.7-3.1,1.9-6.1,3.4-9,1.5-2.9,3.5-5.6,5.9-8.2,2.4-2.6,5.2-4.9,8.6-6.8-5.8-3.3-10.4-7.9-13.8-13.6-3.4-5.7-5.1-12.1-5.1-19.1s1-10.2,3-14.9c2-4.7,4.8-8.7,8.2-12.2s7.5-6.2,12.2-8.2c4.7-2,9.6-3,14.9-3s10.1,1,14.6,3c4.6,2,8.6,4.8,12,8.2,3.4,3.5,6.1,7.5,8.2,12.2,2,4.7,3,9.6,3,14.9s-.8,9.2-2.3,13.2c-1.5,4.1-3.7,7.7-6.5,10.8-2.8,3.1-6.1,5.7-9.9,7.8-3.8,2.1-8,3.4-12.6,4Z"/>
  <path class="st0" d="M363.1,277.2c0-5.3,1-10.2,3-14.9,2-4.7,4.7-8.7,8.2-12.2,3.4-3.5,7.4-6.2,12-8.2,4.6-2,9.4-3,14.6-3s10.2,1,14.9,3c4.7,2,8.7,4.8,12.2,8.2,3.5,3.5,6.2,7.5,8.2,12.2,2,4.7,3,9.6,3,14.9s-1,10.1-3,14.7c-2,4.6-4.8,8.6-8.2,12.1-3.5,3.4-7.5,6.1-12.2,8.1-4.7,2-9.6,3-14.9,3s-10.1-1-14.6-3c-4.6-2-8.6-4.7-12-8.1-3.4-3.4-6.2-7.4-8.2-12.1-2-4.6-3-9.5-3-14.7Z"/>
  <path class="st0" d="M363.1,277.2c0-5.3,1-10.2,3-14.9,2-4.7,4.7-8.7,8.2-12.2,3.4-3.5,7.4-6.2,12-8.2,4.6-2,9.4-3,14.6-3s10.2,1,14.9,3c4.7,2,8.7,4.8,12.2,8.2,3.5,3.5,6.2,7.5,8.2,12.2,2,4.7,3,9.6,3,14.9s-1,10.1-3,14.7c-2,4.6-4.8,8.6-8.2,12.1-3.5,3.4-7.5,6.1-12.2,8.1-4.7,2-9.6,3-14.9,3s-10.1-1-14.6-3c-4.6-2-8.6-4.7-12-8.1-3.4-3.4-6.2-7.4-8.2-12.1-2-4.6-3-9.5-3-14.7Z"/>
  <path class="st0" d="M205.5,93c5.6,0,10,1.5,13.1,4.6,3.1,3.1,5.7,8,7.8,14.9,3.5,0,6.6.3,9.3.7,2.7.4,5.1,1.1,7.1,2.2,2.1,1.1,3.8,2.5,5.2,4.3,1.4,1.8,2.6,4.2,3.6,7.1.4,1.1.6,2.2.8,3.2.2,1,.3,1.9.3,2.9,0,2.1-.4,4.1-1.1,5.9-.7,1.8-1.6,3.5-2.8,5.1-1.2,1.6-2.6,3.1-4.2,4.5-1.6,1.4-3.3,2.8-5,4.1.6,2.7,1.2,5.2,1.7,7.5.5,2.3.8,4.4.8,6.5s-.6,4.8-1.8,7c-1.2,2.2-3.4,4.4-6.5,6.7-3.9,2.8-7.6,4.2-11.3,4.2s-5.6-.7-8.3-2c-2.7-1.4-5.6-3.2-8.7-5.5-3.1,2.3-6,4.1-8.7,5.5-2.7,1.4-5.5,2-8.3,2s-7.5-1.4-11.3-4.2c-3.2-2.3-5.3-4.5-6.5-6.7-1.2-2.2-1.8-4.5-1.8-7s.3-4.2.8-6.5c.5-2.3,1.1-4.8,1.7-7.5-3.6-2.5-6.7-5.4-9.2-8.6-2.5-3.2-3.8-6.8-3.8-10.9s0-1.9.3-2.9c.2-1,.4-2,.8-3.2,1-2.9,2.2-5.2,3.6-7.1,1.4-1.8,3.1-3.2,5.2-4.3,2.1-1.1,4.4-1.8,7.1-2.2,2.7-.4,5.8-.6,9.3-.7,2.1-6.9,4.7-11.8,7.8-14.9,3.1-3.1,7.5-4.6,13.1-4.6Z"/>
  <path class="st0" d="M205.5,93c5.6,0,10,1.5,13.1,4.6,3.1,3.1,5.7,8,7.8,14.9,3.5,0,6.6.3,9.3.7,2.7.4,5.1,1.1,7.1,2.2,2.1,1.1,3.8,2.5,5.2,4.3,1.4,1.8,2.6,4.2,3.6,7.1.4,1.1.6,2.2.8,3.2.2,1,.3,1.9.3,2.9,0,2.1-.4,4.1-1.1,5.9-.7,1.8-1.6,3.5-2.8,5.1-1.2,1.6-2.6,3.1-4.2,4.5-1.6,1.4-3.3,2.8-5,4.1.6,2.7,1.2,5.2,1.7,7.5.5,2.3.8,4.4.8,6.5s-.6,4.8-1.8,7c-1.2,2.2-3.4,4.4-6.5,6.7-3.9,2.8-7.6,4.2-11.3,4.2s-5.6-.7-8.3-2c-2.7-1.4-5.6-3.2-8.7-5.5-3.1,2.3-6,4.1-8.7,5.5-2.7,1.4-5.5,2-8.3,2s-7.5-1.4-11.3-4.2c-3.2-2.3-5.3-4.5-6.5-6.7-1.2-2.2-1.8-4.5-1.8-7s.3-4.2.8-6.5c.5-2.3,1.1-4.8,1.7-7.5-3.6-2.5-6.7-5.4-9.2-8.6-2.5-3.2-3.8-6.8-3.8-10.9s0-1.9.3-2.9c.2-1,.4-2,.8-3.2,1-2.9,2.2-5.2,3.6-7.1,1.4-1.8,3.1-3.2,5.2-4.3,2.1-1.1,4.4-1.8,7.1-2.2,2.7-.4,5.8-.6,9.3-.7,2.1-6.9,4.7-11.8,7.8-14.9,3.1-3.1,7.5-4.6,13.1-4.6Z"/>
  <path d="M256,0C114.6,0,0,114.6,0,256c0,243.7,171.3,35.4,244,108,72.7,72.7-86.3,148,12,148,141.4,0,256-114.6,256-256S397.4,0,256,0ZM138.9,249.1c-1.7,3.9-4,7.1-7,9.8-2.9,2.6-6.4,4.6-10.3,5.9-4,1.3-8.2,2-12.8,2s-10.9-1.1-15.4-3.2c-4.5-2.1-8.3-5-11.3-8.6-3.1-3.6-5.4-7.9-7-12.8-1.6-4.9-2.4-10.1-2.4-15.7s1.1-14.3,3.2-20.1c2.2-5.8,5-10.5,8.6-14.4,3.6-3.8,7.6-6.7,12.3-8.6,4.6-1.9,9.3-2.8,14.2-2.8s6.6.4,9.6,1.1c2.9.7,5.5,1.8,7.6,3.2,2.1,1.4,3.8,3.3,4.9,5.4,1.2,2.2,1.8,4.6,1.8,7.4s-.3,3.5-.8,5.3c-.5,1.8-1.3,3.3-2.4,4.5-1.4-.9-3.4-1.8-5.9-2.9-2.5-1.1-5.9-1.6-10.2-1.6s-7.4.5-10.2,1.4c-2.8.9-4.2,2.4-4.2,4.3s.2,1.4.5,1.8c.4.4.7.8.9,1.2,1.7-1,3.5-1.7,5.5-2.1,2-.4,4.4-.7,7.3-.7s6.7.6,9.9,1.9c3.2,1.3,6,3.1,8.4,5.3,2.4,2.3,4.3,5.1,5.7,8.3,1.4,3.3,2.1,6.9,2.1,10.9s-.9,9.6-2.6,13.4ZM251.6,138.6c-.7,1.8-1.6,3.5-2.8,5.1-1.2,1.6-2.6,3.1-4.2,4.5-1.6,1.4-3.3,2.8-5,4.1.6,2.7,1.2,5.2,1.7,7.5.5,2.3.8,4.4.8,6.5s-.6,4.8-1.8,7c-1.2,2.2-3.4,4.4-6.5,6.7-3.9,2.8-7.6,4.2-11.3,4.2s-5.6-.7-8.3-2c-2.7-1.4-5.6-3.2-8.7-5.5-3.1,2.3-6,4.1-8.7,5.5-2.7,1.4-5.5,2-8.3,2s-7.5-1.4-11.3-4.2c-3.2-2.3-5.3-4.5-6.5-6.7-1.2-2.2-1.8-4.5-1.8-7s.3-4.2.8-6.5c.5-2.3,1.1-4.8,1.7-7.5-3.6-2.5-6.7-5.4-9.2-8.6-2.5-3.2-3.8-6.8-3.8-10.9s0-1.9.3-2.9c.2-1,.4-2,.8-3.2,1-2.9,2.2-5.2,3.6-7.1,1.4-1.8,3.1-3.2,5.2-4.3,2.1-1.1,4.4-1.8,7.1-2.2,2.7-.4,5.8-.6,9.3-.7,2.1-6.9,4.7-11.8,7.8-14.9,3.1-3.1,7.5-4.6,13.1-4.6s10,1.5,13.1,4.6c3.1,3.1,5.7,8,7.8,14.9,3.5,0,6.6.3,9.3.7,2.7.4,5.1,1.1,7.1,2.2,2.1,1.1,3.8,2.5,5.2,4.3,1.4,1.8,2.6,4.2,3.6,7.1.4,1.1.6,2.2.8,3.2.2,1,.3,1.9.3,2.9,0,2.1-.4,4.1-1.1,5.9ZM329.4,166.8c1,.6,2,.9,3.2.9,2.3,0,4.6-.5,7.1-1.5,2.4-1,4.2-1.9,5.5-2.8,4.4,3.5,7.8,7.8,10.3,13,2.5,5.1,3.8,10.6,3.8,16.4s-1,10.1-3,14.7c-2,4.6-4.7,8.6-8.2,12.1s-7.4,6.1-12,8.1c-4.6,2-9.4,3-14.6,3s-10.2-1-14.9-3c-4.7-2-8.7-4.7-12.2-8.1-3.5-3.4-6.2-7.4-8.2-12.1-2-4.6-3-9.5-3-14.7s.4-5.9,1.1-9c.7-3.1,1.9-6.1,3.4-9,1.5-2.9,3.5-5.6,5.9-8.2,2.4-2.6,5.2-4.9,8.6-6.8-5.8-3.3-10.4-7.9-13.8-13.6-3.4-5.7-5.1-12.1-5.1-19.1s1-10.2,3-14.9c2-4.7,4.8-8.7,8.2-12.2s7.5-6.2,12.2-8.2c4.7-2,9.6-3,14.9-3s10.1,1,14.6,3c4.6,2,8.6,4.8,12,8.2,3.4,3.5,6.1,7.5,8.2,12.2,2,4.7,3,9.6,3,14.9s-.8,9.2-2.3,13.2c-1.5,4.1-3.7,7.7-6.5,10.8-2.8,3.1-6.1,5.7-9.9,7.8-3.8,2.1-8,3.4-12.6,4,0,1.9.5,3.2,1.5,3.8ZM436.3,291.9c-2,4.6-4.8,8.6-8.2,12.1-3.5,3.4-7.5,6.1-12.2,8.1-4.7,2-9.6,3-14.9,3s-10.1-1-14.6-3c-4.6-2-8.6-4.7-12-8.1-3.4-3.4-6.2-7.4-8.2-12.1-2-4.6-3-9.5-3-14.7s1-10.2,3-14.9c2-4.7,4.7-8.7,8.2-12.2,3.4-3.5,7.4-6.2,12-8.2,4.6-2,9.4-3,14.6-3s10.2,1,14.9,3c4.7,2,8.7,4.8,12.2,8.2,3.5,3.5,6.2,7.5,8.2,12.2,2,4.7,3,9.6,3,14.9s-1,10.1-3,14.7Z"/>
</svg>